<svg width="74" height="74" viewBox="0 0 74 74" fill="none" xmlns="http://www.w3.org/2000/svg">
<g clip-path="url(#clip0_311_655)">
<path d="M73.6916 71.5338L62.2833 58.1213L63.2083 44.5546C63.2083 44.2463 63.2083 43.938 63.0541 43.6296L58.5833 36.6921L59.5083 28.6755L71.0708 44.0921C71.5333 44.7088 72.6125 44.863 73.2291 44.4005C73.8458 43.938 74 42.8588 73.5375 42.2421L59.6625 23.7421C59.3541 23.2796 59.0458 23.1255 58.4291 23.1255C57.9666 23.1255 57.35 23.4338 57.1958 23.7421L45.6333 38.6963L30.3708 20.6588C30.2167 20.5046 29.7542 20.1963 29.2917 20.1963C28.8292 20.1963 28.2125 20.3505 27.9042 20.813L0.154172 57.813C-0.308328 58.4296 -0.154161 59.5088 0.462505 59.9713C1.07917 60.4338 2.15834 60.2796 2.62084 59.663L25.9 28.6755L23.125 40.0838C22.9708 40.5463 23.125 41.0088 23.4333 41.4713L31.2958 51.1838L21.7375 71.8421C21.4292 72.613 21.7375 73.538 22.5083 73.8463C23.2792 74.1546 24.2042 73.8463 24.5125 73.0755L34.5333 51.4921C34.8417 51.0296 34.6875 50.2588 34.3792 49.7963L26.3625 40.0838L30.0625 24.8213L71.225 73.3838C71.8416 74.0005 72.7666 74.1546 73.3833 73.538C74.1541 73.0755 74.1541 72.1505 73.6916 71.5338ZM59.3541 54.7296L47.7916 41.0088L56.2708 30.063L55.5 36.8463C55.5 37.1546 55.5 37.6171 55.6541 37.9255L59.9708 44.863L59.3541 54.7296Z" fill="white"/>
<path d="M41.6251 16.9583H52.4168C55.8084 16.9583 58.5834 14.1833 58.5834 10.7917C58.5834 8.47917 57.3501 6.475 55.5001 5.39583C55.0376 2.3125 52.4168 0 49.3334 0C47.4834 0 45.7876 0.770834 44.7084 2.15833C43.6293 1.69583 42.7043 1.54167 41.6251 1.54167C37.3084 1.54167 33.9167 4.93333 33.9167 9.25C33.9167 13.5667 37.3084 16.9583 41.6251 16.9583ZM41.6251 4.625C42.5501 4.625 43.4751 4.93333 44.2459 5.39583C45.0168 5.85834 46.0959 5.70417 46.5584 4.77917C47.0209 3.7 48.1001 3.08333 49.3334 3.08333C51.0293 3.08333 52.4168 4.47083 52.4168 6.16667C52.2626 6.9375 52.7251 7.70834 53.4959 7.8625C54.7293 8.325 55.5001 9.55834 55.5001 10.7917C55.5001 12.4875 54.1126 13.875 52.4168 13.875H41.6251C39.0043 13.875 37.0001 11.8708 37.0001 9.25C37.0001 6.62917 39.0043 4.625 41.6251 4.625Z" fill="white"/>
</g>
<defs>
<clipPath id="clip0_311_655">
<rect width="74" height="74" fill="white"/>
</clipPath>
</defs>
</svg>
