<svg width="169" height="138" viewBox="0 0 169 138" fill="none" xmlns="http://www.w3.org/2000/svg">
<path d="M34.5027 136.747C34.1652 136.344 33.8713 136.016 33.6098 135.569" stroke="white" stroke-width="0.7362" stroke-linecap="round" stroke-linejoin="round"/>
<path d="M31.9435 133.244C24.0134 121.083 22.3422 105.16 27.028 91.2186C32.265 75.9543 44.8813 63.3731 60.0411 57.4041C68.3318 54.1537 78.1902 52.8862 85.4977 57.7113C87.3354 58.9361 89.0874 60.7112 89.4501 62.8991C89.9885 66.0842 87.0735 69.2897 83.8816 69.7571C80.6137 70.2689 77.3628 68.3707 75.5223 65.7474C73.6817 63.1241 73.0125 59.7155 72.9846 56.5317C72.857 46.9061 77.6171 37.621 84.5651 30.8561C92.6619 22.919 103.806 18.0995 115.121 17.5798C118.487 17.4104 121.8 17.6723 125.092 18.2466" stroke="white" stroke-width="0.7362" stroke-linecap="round" stroke-linejoin="round" stroke-dasharray="3.36 3.36"/>
<path d="M126.439 18.459C126.917 18.5793 127.395 18.6996 127.873 18.8199" stroke="white" stroke-width="0.7362" stroke-linecap="round" stroke-linejoin="round"/>
<path d="M131.717 24.1711C132.467 24.2327 133.15 23.8329 133.507 23.2239L134.038 22.2137L138.111 22.7306L134.849 31.4395C136.173 31.2646 137.388 30.5538 137.994 29.4992L141.707 23.1271L143.999 23.3863C145.302 23.5237 146.691 23.1109 147.58 22.191C146.97 21.1479 145.752 20.4603 144.373 20.3673L142.124 20.1827L139.917 13.2738C139.535 12.0975 138.533 11.0832 137.295 10.7079L138.497 19.905L134.434 19.5816L134.095 18.4798C133.899 17.7949 133.278 17.2577 132.529 17.1961L131.66 17.1045L132.425 19.4571C131.567 19.5589 130.493 19.9874 130.483 20.4932C130.397 21.0434 131.332 21.5964 132.136 21.9259L130.848 24.0795L131.717 24.1711Z" fill="white"/>
</svg>
